DataType=double
version=3
OpenSimVersion=4.5
endheader
time	pelvis_tilt	pelvis_list	pelvis_rotation	pelvis_tx	pelvis_ty	pelvis_tz	hip_flexion_r	hip_adduction_r	hip_rotation_r	knee_angle_r	knee_frontal_r	knee_adduction_r	knee_angle_r_beta	ankle_angle_r	subtalar_angle_r	mtp_angle_r	hip_flexion_l	hip_adduction_l	hip_rotation_l	knee_angle_l	knee_frontal_l	knee_adduction_l	knee_angle_l_beta	ankle_angle_l	subtalar_angle_l	mtp_angle_l	lumbar_extension	lumbar_bending	lumbar_rotation	arm_flex_r	arm_add_r	arm_rot_r	elbow_flex_r	pro_sup_r	wrist_flex_r	wrist_dev_r	arm_flex_l	arm_add_l	arm_rot_l	elbow_flex_l	pro_sup_l	wrist_flex_l	wrist_dev_l
3.02	-0.1245668140818426	0.02326968542594118	-0.07324275232039817	0.824083482210762	0.9653746728764642	0.4672042105667173	0.493717646220324	-0.0387842580906697	0.08893121592930102	1.195069488417507	0	0	1.195069488417507	-0.02508992450372465	-0.05919082842789395	-0.2295893778125699	0.2833554935812626	0.03231136085031955	0.03626184657266768	0.3538688150304382	0	0	0.3538688150304382	0.1476343375525648	-0.1014127823555911	-0.1718153865785446	-0.06645197964276567	0.02849333112042614	-0.008519526268658921	-0.03964496168787066	-0.2849242876311586	-0.0002802388063671002	0.6761591251081738	1.57079633	0	0	-0.1349429928201594	-0.3319394200678692	0.09895916557948536	0.7682298689057298	1.57079633	0	0
3.025	-0.1264006220341216	0.02272709708565089	-0.07289764805365159	0.8235453105875915	0.9657719933472452	0.4671551236553334	0.5052547130775786	-0.03662635178065189	0.08811880794037122	1.184397337167573	0	0	1.184397337167573	-0.01151166377559493	-0.05736868642687976	-0.233819916512132	0.2770232087587062	0.03193494058508393	0.03644707774633529	0.3502528048447733	0	0	0.3502528048447733	0.1496025572863551	-0.09909348327857743	-0.1728272116506024	-0.06442964352227605	0.03012285990891408	-0.007990890246442102	-0.04526057775838774	-0.2843630227130214	-0.000677593573815416	0.6706168763777389	1.57079633	0	0	-0.1289645479193124	-0.3350091357243838	0.09770943200939	0.7760806674411113	1.57079633	0	0
3.03	-0.1282349417990847	0.02229367320746123	-0.07241878956567445	0.82301189064236	0.9661439322996618	0.4671105818846173	0.5163004909183158	-0.03474828911941674	0.0870003511583587	1.172286579110124	0	0	1.172286579110124	0.001118557586670628	-0.05616192581620508	-0.238055838484578	0.2706738732207498	0.03169120519324704	0.03673117626563583	0.3465287669813197	0	0	0.3465287669813197	0.1514022880100195	-0.09683076883328634	-0.1740154899096019	-0.06236433990316122	0.03156878884179252	-0.007459631561055874	-0.05097718700161116	-0.283765687827032	-0.001265329629353454	0.6652147756732315	1.57079633	0	0	-0.1230301697394842	-0.3381924582371929	0.09657034524785517	0.7842552133289573	1.57079633	0	0
3.035	-0.1300497076973858	0.0219716055589469	-0.07181494564135558	0.8224832779251577	0.9664908044443316	0.4670702607634392	0.5268293219399482	-0.03315893446487495	0.08561561417186113	1.158755377168579	0	0	1.158755377168579	0.01272916375784501	-0.05557209889089638	-0.2421658568435002	0.2642882005271472	0.03158332158074453	0.03712170951129841	0.3426993274392518	0	0	0.3426993274392518	0.1530532732060661	-0.09463738225269197	-0.1753701544266329	-0.06028461918842849	0.03282522989466417	-0.006939400067781523	-0.05676625029706182	-0.2831250844208213	-0.002045332997823612	0.659958488975563	1.57079633	0	0	-0.1171483828008488	-0.3414882001380233	0.09554839010551448	0.7927483680364221	1.57079633	0	0
3.04	-0.1318256342059853	0.02176258654536003	-0.0710957632479506	0.8219593479756123	0.9668128551689487	0.4670340055696374	0.53681647275996	-0.03186396385723673	0.08400753128023328	1.143819602906373	0	0	1.143819602906373	0.02326884072652744	-0.0555873879544347	-0.2460368868344385	0.2578479023649326	0.03161338189995785	0.03762441214097009	0.3387677004025144	0	0	0.3387677004025144	0.1545736894839175	-0.09252504888506446	-0.1768810738177148	-0.05821865205718844	0.0338872871558191	-0.006443165994113235	-0.06259887632521406	-0.28243461695153	-0.003018352583689043	0.6548545051939925	1.57079633	0	0	-0.1113274049738025	-0.3448940350942286	0.09464781816679754	0.8015522175615488	1.57079633	0	0
